<?xml version="1.0" encoding="UTF-8"?>
<svg id="Capa_1" data-name="Capa 1" xmlns="http://www.w3.org/2000/svg" viewBox="0 0 1000 1000">
  <defs>
    <style>
      .cls-1 {
        fill: #fb8500;
      }

      .cls-2 {
        fill: #002d62;
      }

      .cls-3 {
        fill: #f18b28;
      }
    </style>
  </defs>
  <path class="cls-1" d="M185.88,686.4l-.12-60.36-29.92,50.3h-5.44l-29.92-49.95v60.01h-11.35v-82.85h9.7l34.53,58.23,34.06-58.23h9.7l.12,82.85h-11.35Z"/>
  <path class="cls-1" d="M230.57,677.88c-6.15-6.31-9.22-15.39-9.22-27.22v-47.11h11.82v46.63c0,17.75,7.76,26.63,23.3,26.63,7.57,0,13.36-2.19,17.38-6.57s6.03-11.07,6.03-20.06v-46.63h11.47v47.11c0,11.92-3.07,21.01-9.22,27.28s-14.74,9.41-25.78,9.41-19.63-3.15-25.78-9.47Z"/>
  <path class="cls-1" d="M375.66,676.11v10.3h-60.07v-82.85h58.41v10.3h-46.59v25.45h41.5v10.06h-41.5v26.75h48.25Z"/>
  <path class="cls-1" d="M465.53,603.55l-36.3,82.85h-11.71l-36.42-82.85h12.77l29.8,68.06,30.04-68.06h11.82Z"/>
  <path class="cls-1" d="M536.12,676.11v10.3h-60.07v-82.85h58.41v10.3h-46.59v25.45h41.5v10.06h-41.5v26.75h48.25Z"/>
  <path class="cls-1" d="M555.28,603.55h11.83v72.55h44.82v10.3h-56.64v-82.85Z"/>
  <path class="cls-1" d="M638.76,681.85c-6.7-3.67-11.96-8.74-15.79-15.21-3.82-6.47-5.73-13.69-5.73-21.66s1.91-15.19,5.73-21.66c3.82-6.47,9.09-11.54,15.79-15.21s14.23-5.5,22.59-5.5,15.77,1.83,22.47,5.5c6.7,3.67,11.94,8.72,15.73,15.15,3.78,6.43,5.68,13.67,5.68,21.72s-1.89,15.29-5.68,21.72c-3.78,6.43-9.03,11.48-15.73,15.15-6.7,3.67-14.19,5.5-22.47,5.5s-15.89-1.83-22.59-5.5ZM677.73,672.67c4.85-2.76,8.67-6.57,11.47-11.42,2.8-4.85,4.2-10.28,4.2-16.27s-1.4-11.42-4.2-16.27c-2.8-4.85-6.62-8.66-11.47-11.42-4.85-2.76-10.31-4.14-16.38-4.14s-11.57,1.38-16.5,4.14c-4.93,2.76-8.79,6.57-11.59,11.42-2.8,4.85-4.2,10.28-4.2,16.27s1.4,11.42,4.2,16.27c2.8,4.85,6.66,8.66,11.59,11.42,4.93,2.76,10.43,4.14,16.5,4.14s11.53-1.38,16.38-4.14Z"/>
  <path class="cls-2" d="M773.45,686.4l-15.96-23.08h-17.62v23.08h-19.16v-82.85h35.83c7.33,0,13.7,1.22,19.1,3.67,5.4,2.45,9.56,5.92,12.48,10.42,2.92,4.5,4.37,9.82,4.37,15.98s-1.48,11.46-4.43,15.92c-2.96,4.46-7.15,7.87-12.59,10.24l18.56,26.63h-20.57ZM768.6,622.9c-3-2.49-7.37-3.73-13.13-3.73h-15.61v28.88h15.61c5.75,0,10.13-1.26,13.13-3.79,2.99-2.52,4.49-6.07,4.49-10.65s-1.5-8.23-4.49-10.71Z"/>
  <path class="cls-2" d="M807.62,603.55h37.6c8.99,0,16.93,1.72,23.83,5.15,6.9,3.43,12.26,8.27,16.08,14.5,3.82,6.23,5.74,13.49,5.74,21.78s-1.91,15.55-5.74,21.78c-3.83,6.23-9.18,11.07-16.08,14.5-6.9,3.43-14.84,5.15-23.83,5.15h-37.6v-82.85ZM844.28,670.66c8.28,0,14.88-2.31,19.81-6.92,4.92-4.62,7.39-10.87,7.39-18.76s-2.47-14.14-7.39-18.76c-4.93-4.62-11.53-6.92-19.81-6.92h-17.5v51.37h17.5Z"/>
  <rect class="cls-3" x="443.01" y="322.12" width="37.33" height="37.33" transform="translate(376.19 -226.64) rotate(45)"/>
  <rect class="cls-3" x="539.57" y="378.39" width="39.9" height="120.48" transform="translate(1265.33 353.15) rotate(135)"/>
  <rect class="cls-3" x="412.72" y="367.01" width="39.9" height="120.48" transform="translate(1040.73 423.42) rotate(135)"/>
  <rect class="cls-3" x="511.03" y="505.61" width="37.33" height="37.33" transform="translate(525.86 -220.99) rotate(45)"/>
  <path class="cls-2" d="M529.75,313.41l-85.19,85.19,28.21,28.21,85.19-85.19-28.21-28.21ZM465.59,408.57l-2.78-2.78,10.11-10.11,2.78,2.78-10.11,10.11ZM480.93,393.23l-2.78-2.78,10.11-10.11,2.78,2.78-10.11,10.11ZM496.26,377.9l-2.78-2.78,10.11-10.11,2.78,2.78-10.11,10.11ZM511.59,362.57l-2.78-2.78,10.11-10.11,2.78,2.78-10.11,10.11ZM524.15,344.45l10.11-10.11,2.78,2.78-10.11,10.11-2.78-2.78Z"/>
  <path class="cls-2" d="M518.28,438.35l-85.19,85.19,28.21,28.21,85.19-85.19-28.21-28.21ZM454.12,533.5l-2.78-2.78,10.11-10.11,2.78,2.78-10.11,10.11ZM469.46,518.17l-2.78-2.78,10.11-10.11,2.78,2.78-10.11,10.11ZM484.79,502.83l-2.78-2.78,10.11-10.11,2.78,2.78-10.11,10.11ZM500.12,487.5l-2.78-2.78,10.11-10.11,2.78,2.78-10.11,10.11ZM512.68,469.38l10.11-10.11,2.78,2.78-10.11,10.11-2.78-2.78Z"/>
  <path class="cls-2" d="M403.39,440.92l-26.4,26.4,26.4,26.4,26.4-26.4-26.4-26.4ZM393.27,480.21l-2.78-2.78,10.11-10.11,2.78,2.78-10.11,10.11ZM403.39,464.54l10.11-10.11,2.78,2.78-10.11,10.11-2.78-2.78Z"/>
  <path class="cls-2" d="M586.75,370.64l-26.4,26.4,26.4,26.4,26.4-26.4-26.4-26.4ZM576.64,409.93l-2.78-2.78,10.11-10.11,2.78,2.78-10.11,10.11ZM586.75,394.25l10.11-10.11,2.78,2.78-10.11,10.11-2.78-2.78Z"/>
</svg>