<?xml version="1.0" encoding="UTF-8"?>
<svg id="Capa_1" data-name="Capa 1" xmlns="http://www.w3.org/2000/svg" viewBox="0 0 822.68 210.97">
  <defs>
    <style>
      .cls-1 {
        fill: #fb8500;
      }

      .cls-2 {
        fill: #002d62;
      }

      .cls-3 {
        fill: #f18b28;
      }
    </style>
  </defs>
  <g>
    <path class="cls-1" d="M320.98,107.08l-.11-58.31-28.9,48.59h-5.26l-28.9-48.25v57.97h-10.97V27.04h9.37l33.36,56.25,32.9-56.25h9.37l.11,80.04h-10.97Z"/>
    <path class="cls-1" d="M364.16,98.85c-5.94-6.1-8.91-14.86-8.91-26.3V27.04h11.42v45.05c0,17.15,7.5,25.73,22.5,25.73,7.31,0,12.91-2.12,16.79-6.35,3.88-4.23,5.83-10.69,5.83-19.38V27.04h11.08v45.51c0,11.51-2.97,20.3-8.91,26.36-5.94,6.06-14.24,9.09-24.9,9.09s-18.96-3.05-24.9-9.15Z"/>
    <path class="cls-1" d="M504.32,97.13v9.95h-58.03V27.04h56.43v9.95h-45.01v24.58h40.09v9.72h-40.09v25.84h46.61Z"/>
    <path class="cls-1" d="M591.13,27.04l-35.07,80.04h-11.31l-35.19-80.04h12.34l28.79,65.75,29.02-65.75h11.42Z"/>
    <path class="cls-1" d="M659.33,97.13v9.95h-58.03V27.04h56.43v9.95h-45.01v24.58h40.09v9.72h-40.09v25.84h46.61Z"/>
    <path class="cls-1" d="M677.84,27.04h11.42v70.09h43.29v9.95h-54.72V27.04Z"/>
    <path class="cls-1" d="M758.49,102.68c-6.47-3.54-11.56-8.44-15.25-14.69-3.69-6.25-5.54-13.22-5.54-20.92s1.85-14.67,5.54-20.92c3.69-6.25,8.78-11.15,15.25-14.69,6.47-3.54,13.74-5.32,21.82-5.32s15.23,1.77,21.7,5.32c6.47,3.54,11.54,8.42,15.19,14.64,3.66,6.21,5.48,13.21,5.48,20.98s-1.83,14.77-5.48,20.98c-3.66,6.21-8.72,11.09-15.19,14.64-6.47,3.54-13.71,5.32-21.7,5.32s-15.35-1.77-21.82-5.32ZM796.12,93.82c4.68-2.67,8.38-6.35,11.08-11.03,2.7-4.69,4.05-9.93,4.05-15.72s-1.35-11.03-4.05-15.72c-2.7-4.69-6.4-8.36-11.08-11.03-4.68-2.67-9.96-4-15.82-4s-11.18,1.33-15.94,4c-4.76,2.67-8.49,6.35-11.19,11.03-2.7,4.69-4.06,9.93-4.06,15.72s1.35,11.03,4.06,15.72c2.7,4.69,6.44,8.37,11.19,11.03,4.76,2.67,10.07,4,15.94,4s11.14-1.33,15.82-4Z"/>
    <path class="cls-2" d="M295.27,204.27l-15.42-22.3h-17.02v22.3h-18.51v-80.04h34.61c7.08,0,13.23,1.18,18.45,3.54,5.21,2.36,9.23,5.72,12.05,10.06,2.82,4.35,4.23,9.49,4.23,15.44s-1.43,11.07-4.28,15.38c-2.86,4.31-6.91,7.6-12.17,9.89l17.93,25.73h-19.88ZM290.59,142.92c-2.89-2.4-7.12-3.6-12.68-3.6h-15.08v27.9h15.08c5.56,0,9.78-1.22,12.68-3.66,2.89-2.44,4.34-5.87,4.34-10.29s-1.45-7.95-4.34-10.35Z"/>
    <path class="cls-2" d="M328.28,124.23h36.33c8.68,0,16.35,1.66,23.02,4.97,6.66,3.32,11.84,7.99,15.54,14.01,3.69,6.02,5.54,13.04,5.54,21.04s-1.85,15.02-5.54,21.04c-3.69,6.02-8.87,10.69-15.54,14.01-6.67,3.32-14.34,4.97-23.02,4.97h-36.33v-80.04ZM363.7,189.06c8,0,14.37-2.23,19.13-6.69,4.76-4.46,7.14-10.5,7.14-18.12s-2.38-13.66-7.14-18.12c-4.76-4.46-11.14-6.69-19.13-6.69h-16.91v49.62h16.91Z"/>
  </g>
  <g>
    <rect class="cls-3" x="59.35" y="7.71" width="33.04" height="33.04" transform="translate(39.35 -46.55) rotate(45)"/>
    <rect class="cls-3" x="144.82" y="57.52" width="35.32" height="106.64" transform="translate(355.74 74.32) rotate(135)"/>
    <rect class="cls-3" x="32.53" y="47.44" width="35.32" height="106.64" transform="translate(156.93 136.53) rotate(135)"/>
    <rect class="cls-3" x="119.55" y="170.13" width="33.04" height="33.04" transform="translate(171.83 -41.55) rotate(45)"/>
    <path class="cls-2" d="M136.12,0L60.72,75.41l24.97,24.97L161.1,24.97,136.12,0ZM79.33,84.23l-2.46-2.46,8.95-8.95,2.46,2.46-8.95,8.95ZM92.91,70.65l-2.46-2.46,8.95-8.95,2.46,2.46-8.95,8.95ZM106.48,57.08l-2.46-2.46,8.95-8.95,2.46,2.46-8.95,8.95ZM120.05,43.51l-2.46-2.46,8.95-8.95,2.46,2.46-8.95,8.95ZM131.16,27.47l8.95-8.95,2.46,2.46-8.95,8.95-2.46-2.46Z"/>
    <path class="cls-2" d="M125.97,110.58l-75.41,75.41,24.97,24.97,75.41-75.41-24.97-24.97ZM69.18,194.81l-2.46-2.46,8.95-8.95,2.46,2.46-8.95,8.95ZM82.75,181.24l-2.46-2.46,8.95-8.95,2.46,2.46-8.95,8.95ZM96.33,167.67l-2.46-2.46,8.95-8.95,2.46,2.46-8.95,8.95ZM109.9,154.09l-2.46-2.46,8.95-8.95,2.46,2.46-8.95,8.95ZM121.01,138.06l8.95-8.95,2.46,2.46-8.95,8.95-2.46-2.46Z"/>
    <path class="cls-2" d="M24.27,112.86L.91,136.23l23.36,23.36,23.36-23.36-23.36-23.36ZM15.32,147.64l-2.46-2.46,8.95-8.95,2.46,2.46-8.95,8.95ZM24.27,133.77l8.95-8.95,2.46,2.46-8.95,8.95-2.46-2.46Z"/>
    <path class="cls-2" d="M186.58,50.65l-23.36,23.36,23.36,23.36,23.36-23.36-23.36-23.36ZM177.63,85.43l-2.46-2.46,8.95-8.95,2.46,2.46-8.95,8.95ZM186.58,71.55l8.95-8.95,2.46,2.46-8.95,8.95-2.46-2.46Z"/>
  </g>
</svg>