<?xml version="1.0" encoding="UTF-8"?>
<svg id="Capa_1" data-name="Capa 1" xmlns="http://www.w3.org/2000/svg" viewBox="0 0 1000 1000">
  <defs>
    <style>
      .cls-1 {
        fill: #002d62;
      }

      .cls-2 {
        fill: #f18b28;
      }
    </style>
  </defs>
  <rect class="cls-2" x="399.65" y="291.19" width="70.56" height="70.56" transform="translate(358.24 -211.92) rotate(45)"/>
  <rect class="cls-2" x="582.19" y="397.56" width="75.43" height="227.75" transform="translate(1419.88 434.74) rotate(135)"/>
  <rect class="cls-2" x="342.38" y="376.05" width="75.43" height="227.75" transform="translate(995.3 567.58) rotate(135)"/>
  <rect class="cls-2" x="528.23" y="638.05" width="70.56" height="70.56" transform="translate(641.17 -201.25) rotate(45)"/>
  <path class="cls-1" d="M563.62,274.73l-161.04,161.04,53.34,53.34,161.04-161.04-53.34-53.34ZM442.33,454.6l-5.25-5.25,19.12-19.12,5.25,5.25-19.12,19.12ZM471.32,425.62l-5.25-5.25,19.12-19.12,5.25,5.25-19.12,19.12ZM500.31,396.63l-5.25-5.25,19.12-19.12,5.25,5.25-19.12,19.12ZM529.29,367.64l-5.25-5.25,19.12-19.12,5.25,5.25-19.12,19.12ZM553.03,333.4l19.12-19.12,5.25,5.25-19.12,19.12-5.25-5.25Z"/>
  <path class="cls-1" d="M541.94,510.9l-161.04,161.04,53.34,53.34,161.04-161.04-53.34-53.34ZM420.65,690.77l-5.25-5.25,19.12-19.12,5.25,5.25-19.12,19.12ZM449.64,661.79l-5.25-5.25,19.12-19.12,5.25,5.25-19.12,19.12ZM478.63,632.8l-5.25-5.25,19.12-19.12,5.25,5.25-19.12,19.12ZM507.61,603.81l-5.25-5.25,19.12-19.12,5.25,5.25-19.12,19.12ZM531.35,569.57l19.12-19.12,5.25,5.25-19.12,19.12-5.25-5.25Z"/>
  <path class="cls-1" d="M324.75,515.76l-49.9,49.9,49.9,49.9,49.9-49.9-49.9-49.9ZM305.63,590.04l-5.25-5.25,19.12-19.12,5.25,5.25-19.12,19.12ZM324.75,560.41l19.12-19.12,5.25,5.25-19.12,19.12-5.25-5.25Z"/>
  <path class="cls-1" d="M671.38,382.9l-49.9,49.9,49.9,49.9,49.9-49.9-49.9-49.9ZM652.26,457.17l-5.25-5.25,19.12-19.12,5.25,5.25-19.12,19.12ZM671.38,427.54l19.12-19.12,5.25,5.25-19.12,19.12-5.25-5.25Z"/>
</svg>